<mxfile host="65bd71144e">
    <diagram id="bshUWRw8r4V4z6tN9mnT" name="第 1 页">
        <mxGraphModel dx="911" dy="635" grid="1" gridSize="10" guides="1" tooltips="1" connect="1" arrows="1" fold="1" page="1" pageScale="1" pageWidth="827" pageHeight="1169" background="#ffffff" math="0" shadow="0">
            <root>
                <mxCell id="0"/>
                <mxCell id="1" parent="0"/>
                <mxCell id="104" style="edgeStyle=none;html=1;" edge="1" parent="1" source="2" target="102">
                    <mxGeometry relative="1" as="geometry"/>
                </mxCell>
                <mxCell id="2" value="&lt;div style=&quot;background-color: rgb(255, 255, 255); font-family: Consolas, &amp;quot;Courier New&amp;quot;, monospace; font-size: 14px; line-height: 19px;&quot;&gt;Resource_Init()&lt;/div&gt;" style="whiteSpace=wrap;html=1;shadow=1;" parent="1" vertex="1">
                    <mxGeometry x="352" y="110" width="150" height="30" as="geometry"/>
                </mxCell>
                <mxCell id="3" value="&lt;div style=&quot;background-color: rgb(255, 255, 255); font-family: Consolas, &amp;quot;Courier New&amp;quot;, monospace; font-size: 14px; line-height: 19px;&quot;&gt;Breathe_LED()&lt;/div&gt;" style="whiteSpace=wrap;html=1;shadow=1;" parent="1" vertex="1">
                    <mxGeometry x="180" y="393" width="120" height="30" as="geometry"/>
                </mxCell>
                <mxCell id="68" style="edgeStyle=none;html=1;exitX=0.5;exitY=1;exitDx=0;exitDy=0;entryX=0.5;entryY=0;entryDx=0;entryDy=0;" parent="1" source="5" target="53" edge="1">
                    <mxGeometry relative="1" as="geometry">
                        <mxPoint x="420" y="343" as="targetPoint"/>
                        <Array as="points">
                            <mxPoint x="240" y="533"/>
                            <mxPoint x="160" y="533"/>
                            <mxPoint x="160" y="343"/>
                            <mxPoint x="427" y="343"/>
                        </Array>
                    </mxGeometry>
                </mxCell>
                <mxCell id="5" value="&lt;div style=&quot;background-color: rgb(255, 255, 255); font-family: Consolas, &amp;quot;Courier New&amp;quot;, monospace; font-size: 14px; line-height: 19px;&quot;&gt;&lt;div style=&quot;line-height: 19px;&quot;&gt;Delay_us(&lt;span style=&quot;color: #098658;&quot;&gt;500&lt;/span&gt;)&lt;/div&gt;&lt;/div&gt;" style="whiteSpace=wrap;html=1;shadow=1;" parent="1" vertex="1">
                    <mxGeometry x="180" y="445" width="120" height="30" as="geometry"/>
                </mxCell>
                <mxCell id="6" style="edgeStyle=none;html=1;exitX=0.5;exitY=1;exitDx=0;exitDy=0;entryX=0.5;entryY=0;entryDx=0;entryDy=0;" parent="1" source="3" target="5" edge="1">
                    <mxGeometry relative="1" as="geometry"/>
                </mxCell>
                <mxCell id="28" style="edgeStyle=none;html=1;endArrow=classic;endFill=1;" parent="1" source="18" target="41" edge="1">
                    <mxGeometry relative="1" as="geometry">
                        <mxPoint x="120" y="733" as="targetPoint"/>
                    </mxGeometry>
                </mxCell>
                <mxCell id="40" value="Y" style="edgeLabel;html=1;align=center;verticalAlign=middle;resizable=0;points=[];" parent="28" vertex="1" connectable="0">
                    <mxGeometry x="-0.4" y="1" relative="1" as="geometry">
                        <mxPoint as="offset"/>
                    </mxGeometry>
                </mxCell>
                <mxCell id="44" style="edgeStyle=none;html=1;entryX=0.5;entryY=0;entryDx=0;entryDy=0;endArrow=classic;endFill=1;exitX=1;exitY=0.5;exitDx=0;exitDy=0;" parent="1" source="18" target="31" edge="1">
                    <mxGeometry relative="1" as="geometry">
                        <Array as="points">
                            <mxPoint x="313" y="658"/>
                        </Array>
                    </mxGeometry>
                </mxCell>
                <mxCell id="45" value="N" style="edgeLabel;html=1;align=center;verticalAlign=middle;resizable=0;points=[];" parent="44" vertex="1" connectable="0">
                    <mxGeometry x="-0.2245" relative="1" as="geometry">
                        <mxPoint as="offset"/>
                    </mxGeometry>
                </mxCell>
                <mxCell id="18" value="&lt;div style=&quot;background-color: rgb(255, 255, 255); font-family: Consolas, &amp;quot;Courier New&amp;quot;, monospace; font-size: 14px; line-height: 19px;&quot;&gt;led_on == true&lt;/div&gt;" style="rhombus;whiteSpace=wrap;html=1;fillColor=none;" parent="1" vertex="1">
                    <mxGeometry x="20" y="633" width="200" height="50" as="geometry"/>
                </mxCell>
                <mxCell id="31" value="&lt;div style=&quot;background-color: rgb(255, 255, 255); font-family: Consolas, &amp;quot;Courier New&amp;quot;, monospace; font-size: 14px; line-height: 19px;&quot;&gt;&lt;div style=&quot;line-height: 19px;&quot;&gt;&lt;div style=&quot;border-color: var(--border-color); line-height: 19px;&quot;&gt;TIM_SetCompare&amp;nbsp;&lt;/div&gt;&lt;div style=&quot;border-color: var(--border-color); line-height: 19px;&quot;&gt;with 0&lt;/div&gt;&lt;/div&gt;&lt;/div&gt;" style="whiteSpace=wrap;html=1;shadow=1;" parent="1" vertex="1">
                    <mxGeometry x="238" y="723" width="150" height="50" as="geometry"/>
                </mxCell>
                <mxCell id="41" value="&lt;div style=&quot;background-color: rgb(255, 255, 255); font-family: Consolas, &amp;quot;Courier New&amp;quot;, monospace; font-size: 14px; line-height: 19px;&quot;&gt;&lt;div style=&quot;line-height: 19px;&quot;&gt;&lt;div style=&quot;line-height: 19px;&quot;&gt;&lt;div style=&quot;line-height: 19px;&quot;&gt;TIM_SetCompare&amp;nbsp;&lt;/div&gt;&lt;div style=&quot;line-height: 19px;&quot;&gt;with new brightness&lt;/div&gt;&lt;/div&gt;&lt;/div&gt;&lt;/div&gt;" style="whiteSpace=wrap;html=1;shadow=1;" parent="1" vertex="1">
                    <mxGeometry x="27.5" y="723" width="185" height="50" as="geometry"/>
                </mxCell>
                <mxCell id="54" value="Y" style="edgeStyle=none;html=1;entryX=1;entryY=0.5;entryDx=0;entryDy=0;exitX=0;exitY=0.5;exitDx=0;exitDy=0;" parent="1" source="53" target="3" edge="1">
                    <mxGeometry relative="1" as="geometry"/>
                </mxCell>
                <mxCell id="56" value="N" style="edgeStyle=none;html=1;entryX=0.5;entryY=0;entryDx=0;entryDy=0;" parent="1" source="53" target="55" edge="1">
                    <mxGeometry relative="1" as="geometry"/>
                </mxCell>
                <mxCell id="69" style="edgeStyle=none;html=1;" parent="1" source="53" edge="1">
                    <mxGeometry relative="1" as="geometry">
                        <mxPoint x="427" y="373" as="targetPoint"/>
                    </mxGeometry>
                </mxCell>
                <mxCell id="53" value="&lt;div style=&quot;background-color: rgb(255, 255, 255); font-family: Menlo, Monaco, &amp;quot;Courier New&amp;quot;, monospace; line-height: 18px;&quot;&gt;led_mode&amp;nbsp;&lt;/div&gt;&lt;div style=&quot;background-color: rgb(255, 255, 255); font-family: Menlo, Monaco, &amp;quot;Courier New&amp;quot;, monospace; line-height: 18px;&quot;&gt;== BREATHE&lt;/div&gt;" style="rhombus;whiteSpace=wrap;html=1;" parent="1" vertex="1">
                    <mxGeometry x="343" y="375" width="168" height="68" as="geometry"/>
                </mxCell>
                <mxCell id="58" value="Y" style="edgeStyle=none;html=1;" parent="1" source="55" target="57" edge="1">
                    <mxGeometry relative="1" as="geometry">
                        <mxPoint x="427" y="593" as="targetPoint"/>
                    </mxGeometry>
                </mxCell>
                <mxCell id="55" value="&lt;div style=&quot;background-color: rgb(255, 255, 255); font-family: Menlo, Monaco, &amp;quot;Courier New&amp;quot;, monospace; line-height: 18px;&quot;&gt;&lt;div style=&quot;line-height: 18px;&quot;&gt;led_mode&amp;nbsp;&lt;/div&gt;&lt;div style=&quot;line-height: 18px;&quot;&gt;== BLINK&lt;/div&gt;&lt;/div&gt;" style="rhombus;whiteSpace=wrap;html=1;" parent="1" vertex="1">
                    <mxGeometry x="343" y="485" width="168" height="68" as="geometry"/>
                </mxCell>
                <mxCell id="57" value="&lt;div style=&quot;background-color: rgb(255, 255, 255); font-family: Consolas, &amp;quot;Courier New&amp;quot;, monospace; font-size: 14px; line-height: 19px;&quot;&gt;&lt;div style=&quot;font-family: Menlo, Monaco, &amp;quot;Courier New&amp;quot;, monospace; font-size: 12px; line-height: 18px;&quot;&gt;LED_Blink()&lt;/div&gt;&lt;/div&gt;" style="whiteSpace=wrap;html=1;shadow=1;" parent="1" vertex="1">
                    <mxGeometry x="367" y="595" width="120" height="30" as="geometry"/>
                </mxCell>
                <mxCell id="70" value="" style="endArrow=classic;html=1;entryX=0.5;entryY=0;entryDx=0;entryDy=0;" parent="1" source="57" target="53" edge="1">
                    <mxGeometry width="50" height="50" relative="1" as="geometry">
                        <mxPoint x="427" y="623" as="sourcePoint"/>
                        <mxPoint x="600" y="363" as="targetPoint"/>
                        <Array as="points">
                            <mxPoint x="427" y="663"/>
                            <mxPoint x="530" y="663"/>
                            <mxPoint x="530" y="340"/>
                            <mxPoint x="427" y="340"/>
                        </Array>
                    </mxGeometry>
                </mxCell>
                <mxCell id="71" value="" style="endArrow=none;dashed=1;html=1;dashPattern=1 3;strokeWidth=2;entryX=0;entryY=0.5;entryDx=0;entryDy=0;exitX=0.5;exitY=0;exitDx=0;exitDy=0;" parent="1" source="18" target="3" edge="1">
                    <mxGeometry width="50" height="50" relative="1" as="geometry">
                        <mxPoint x="350" y="553" as="sourcePoint"/>
                        <mxPoint x="400" y="503" as="targetPoint"/>
                        <Array as="points">
                            <mxPoint x="120" y="423"/>
                        </Array>
                    </mxGeometry>
                </mxCell>
                <mxCell id="74" style="edgeStyle=none;html=1;entryX=0.5;entryY=0;entryDx=0;entryDy=0;" parent="1" source="72" target="73" edge="1">
                    <mxGeometry relative="1" as="geometry"/>
                </mxCell>
                <mxCell id="72" value="&lt;div style=&quot;background-color: rgb(255, 255, 255); font-family: Consolas, &amp;quot;Courier New&amp;quot;, monospace; font-size: 14px; line-height: 19px;&quot;&gt;&lt;div style=&quot;line-height: 19px;&quot;&gt;&lt;div style=&quot;line-height: 19px;&quot;&gt;&lt;div style=&quot;line-height: 19px;&quot;&gt;TIM_SetCompare&amp;nbsp;&lt;/div&gt;&lt;div style=&quot;line-height: 19px;&quot;&gt;with 999，&lt;/div&gt;&lt;div style=&quot;line-height: 19px;&quot;&gt;delay 250ms&lt;/div&gt;&lt;/div&gt;&lt;/div&gt;&lt;/div&gt;" style="whiteSpace=wrap;html=1;shadow=1;" parent="1" vertex="1">
                    <mxGeometry x="537" y="683" width="185" height="60" as="geometry"/>
                </mxCell>
                <mxCell id="73" value="&lt;div style=&quot;background-color: rgb(255, 255, 255); font-family: Consolas, &amp;quot;Courier New&amp;quot;, monospace; font-size: 14px; line-height: 19px;&quot;&gt;&lt;div style=&quot;line-height: 19px;&quot;&gt;&lt;div style=&quot;line-height: 19px;&quot;&gt;&lt;div style=&quot;line-height: 19px;&quot;&gt;TIM_SetCompare&amp;nbsp;&lt;/div&gt;&lt;div style=&quot;line-height: 19px;&quot;&gt;with 0，&lt;/div&gt;&lt;div style=&quot;line-height: 19px;&quot;&gt;delay 250ms&lt;/div&gt;&lt;/div&gt;&lt;/div&gt;&lt;/div&gt;" style="whiteSpace=wrap;html=1;shadow=1;" parent="1" vertex="1">
                    <mxGeometry x="537" y="773" width="185" height="60" as="geometry"/>
                </mxCell>
                <mxCell id="75" value="" style="endArrow=none;dashed=1;html=1;dashPattern=1 3;strokeWidth=2;exitX=0.5;exitY=0;exitDx=0;exitDy=0;" parent="1" source="72" target="57" edge="1">
                    <mxGeometry width="50" height="50" relative="1" as="geometry">
                        <mxPoint x="350" y="663" as="sourcePoint"/>
                        <mxPoint x="487" y="608" as="targetPoint"/>
                        <Array as="points">
                            <mxPoint x="630" y="608"/>
                        </Array>
                    </mxGeometry>
                </mxCell>
                <mxCell id="77" style="edgeStyle=none;html=1;entryX=0.5;entryY=0;entryDx=0;entryDy=0;" parent="1" source="76" target="2" edge="1">
                    <mxGeometry relative="1" as="geometry"/>
                </mxCell>
                <mxCell id="76" value="start" style="ellipse;shape=doubleEllipse;whiteSpace=wrap;html=1;aspect=fixed;" parent="1" vertex="1">
                    <mxGeometry x="402" y="25" width="50" height="50" as="geometry"/>
                </mxCell>
                <mxCell id="94" style="edgeStyle=none;html=1;entryX=0.5;entryY=0;entryDx=0;entryDy=0;" parent="1" source="79" target="85" edge="1">
                    <mxGeometry relative="1" as="geometry"/>
                </mxCell>
                <mxCell id="79" value="&lt;div style=&quot;font-family: Consolas, &amp;quot;Courier New&amp;quot;, monospace; font-size: 14px; line-height: 19px;&quot;&gt;&lt;div style=&quot;line-height: 19px;&quot;&gt;&lt;div style=&quot;font-family: Menlo, Monaco, &amp;quot;Courier New&amp;quot;, monospace; font-size: 12px; line-height: 18px;&quot;&gt;EXTI15_10_IRQHandler&lt;/div&gt;&lt;/div&gt;&lt;/div&gt;" style="whiteSpace=wrap;html=1;shadow=1;fillColor=#d5e8d4;strokeColor=#82b366;labelBackgroundColor=#d6e8d5;" parent="1" vertex="1">
                    <mxGeometry x="629" y="181" width="150" height="40" as="geometry"/>
                </mxCell>
                <mxCell id="80" style="edgeStyle=none;html=1;entryX=0.5;entryY=0;entryDx=0;entryDy=0;fontColor=#fff2cc;endArrow=classic;endFill=1;fillColor=#d5e8d4;strokeColor=#82b366;labelBackgroundColor=#d6e8d5;" parent="1" source="81" target="79" edge="1">
                    <mxGeometry relative="1" as="geometry"/>
                </mxCell>
                <mxCell id="81" value="&lt;div style=&quot;font-family: Consolas, &amp;quot;Courier New&amp;quot;, monospace; font-size: 14px; line-height: 19px;&quot;&gt;&lt;div style=&quot;line-height: 19px;&quot;&gt;按钮PB10触发中断&lt;/div&gt;&lt;/div&gt;" style="whiteSpace=wrap;html=1;shadow=1;fillColor=#d5e8d4;strokeColor=#82b366;labelBackgroundColor=#d6e8d5;" parent="1" vertex="1">
                    <mxGeometry x="629" y="110" width="150" height="40" as="geometry"/>
                </mxCell>
                <mxCell id="95" style="edgeStyle=none;html=1;" parent="1" source="85" target="87" edge="1">
                    <mxGeometry relative="1" as="geometry"/>
                </mxCell>
                <mxCell id="85" value="&lt;div style=&quot;font-family: Consolas, &amp;quot;Courier New&amp;quot;, monospace; font-size: 14px; line-height: 19px;&quot;&gt;&lt;div style=&quot;line-height: 19px;&quot;&gt;&lt;div style=&quot;font-family: Menlo, Monaco, &amp;quot;Courier New&amp;quot;, monospace; font-size: 12px; line-height: 18px;&quot;&gt;led_mode = BLINK&lt;/div&gt;&lt;div style=&quot;font-family: Menlo, Monaco, &amp;quot;Courier New&amp;quot;, monospace; font-size: 12px; line-height: 18px;&quot;&gt;开始闪烁&lt;/div&gt;&lt;/div&gt;&lt;/div&gt;" style="whiteSpace=wrap;html=1;shadow=1;fillColor=#d5e8d4;strokeColor=#82b366;labelBackgroundColor=#d6e8d5;" parent="1" vertex="1">
                    <mxGeometry x="629" y="250" width="150" height="40" as="geometry"/>
                </mxCell>
                <mxCell id="87" value="&lt;div style=&quot;font-family: Consolas, &amp;quot;Courier New&amp;quot;, monospace; font-size: 14px; line-height: 19px;&quot;&gt;&lt;div style=&quot;line-height: 19px;&quot;&gt;&lt;div style=&quot;font-family: Menlo, Monaco, &amp;quot;Courier New&amp;quot;, monospace; font-size: 12px; line-height: 18px;&quot;&gt;&lt;div style=&quot;line-height: 18px;&quot;&gt;&lt;div style=&quot;line-height: 18px;&quot;&gt;startTime = RTC_GetCounter()&lt;/div&gt;&lt;/div&gt;&lt;/div&gt;&lt;/div&gt;&lt;/div&gt;" style="whiteSpace=wrap;html=1;shadow=1;fillColor=#d6e8d5;strokeColor=#82b366;labelBackgroundColor=#D6E8D5;" parent="1" vertex="1">
                    <mxGeometry x="629" y="322" width="150" height="40" as="geometry"/>
                </mxCell>
                <mxCell id="92" value="&lt;div style=&quot;border-color: var(--border-color); text-align: left; font-family: Menlo, Monaco, &amp;quot;Courier New&amp;quot;, monospace; line-height: 18px;&quot;&gt;&lt;span style=&quot;border-color: var(--border-color); color: rgb(0, 128, 0); background-color: rgb(255, 244, 165);&quot;&gt;PA0 为复用推挽输出,LED&lt;/span&gt;&lt;/div&gt;&lt;div style=&quot;border-color: var(--border-color); text-align: left; font-family: Menlo, Monaco, &amp;quot;Courier New&amp;quot;, monospace; line-height: 18px;&quot;&gt;&lt;div style=&quot;border-color: var(--border-color); line-height: 18px;&quot;&gt;&lt;span style=&quot;border-color: var(--border-color); color: rgb(0, 128, 0); background-color: rgb(255, 244, 165);&quot;&gt;PB0 为上拉输入，按键,配置为中断方式&lt;/span&gt;&lt;/div&gt;&lt;div style=&quot;border-color: var(--border-color); line-height: 18px;&quot;&gt;&lt;span style=&quot;border-color: var(--border-color); color: rgb(0, 128, 0); background-color: rgb(255, 244, 165);&quot;&gt;PB10 为上拉输入，按键,配置为中断方式&lt;br&gt;&lt;/span&gt;&lt;/div&gt;&lt;div style=&quot;border-color: var(--border-color); line-height: 18px;&quot;&gt;&lt;span style=&quot;background-color: rgb(255, 244, 165);&quot;&gt;&lt;span style=&quot;border-color: var(--border-color); color: rgb(0, 128, 0);&quot;&gt;TIM2,&lt;/span&gt;&lt;span style=&quot;border-color: var(--border-color); color: rgb(0, 128, 0);&quot;&gt;预分频器71,&lt;/span&gt;&lt;span style=&quot;border-color: var(--border-color); color: rgb(0, 128, 0);&quot;&gt;Period=999&lt;/span&gt;&lt;/span&gt;&lt;/div&gt;&lt;/div&gt;" style="shape=note;whiteSpace=wrap;html=1;backgroundOutline=1;fontColor=#000000;darkOpacity=0.05;fillColor=#FFF9B2;strokeColor=none;fillStyle=solid;direction=west;gradientDirection=north;gradientColor=#FFF2A1;shadow=1;size=20;pointerEvents=1;labelBackgroundColor=#fef7ae;" parent="1" vertex="1">
                    <mxGeometry x="20" y="30" width="272.5" height="110" as="geometry"/>
                </mxCell>
                <mxCell id="93" value="" style="endArrow=none;dashed=1;html=1;dashPattern=1 3;strokeWidth=2;entryX=0;entryY=0.5;entryDx=0;entryDy=0;exitX=0;exitY=0.5;exitDx=0;exitDy=0;exitPerimeter=0;" parent="1" source="92" target="2" edge="1">
                    <mxGeometry width="50" height="50" relative="1" as="geometry">
                        <mxPoint x="400" y="350" as="sourcePoint"/>
                        <mxPoint x="450" y="300" as="targetPoint"/>
                    </mxGeometry>
                </mxCell>
                <mxCell id="106" style="edgeStyle=none;html=1;fontSize=9;" edge="1" parent="1" source="102" target="105">
                    <mxGeometry relative="1" as="geometry"/>
                </mxCell>
                <mxCell id="107" value="Y" style="edgeLabel;html=1;align=center;verticalAlign=middle;resizable=0;points=[];fontSize=9;" vertex="1" connectable="0" parent="106">
                    <mxGeometry x="-0.2" y="1" relative="1" as="geometry">
                        <mxPoint x="12" as="offset"/>
                    </mxGeometry>
                </mxCell>
                <mxCell id="109" style="edgeStyle=none;html=1;fontSize=9;exitX=1;exitY=0.5;exitDx=0;exitDy=0;entryX=0.5;entryY=0;entryDx=0;entryDy=0;" edge="1" parent="1" source="102" target="53">
                    <mxGeometry relative="1" as="geometry">
                        <mxPoint x="590" y="300" as="targetPoint"/>
                        <Array as="points">
                            <mxPoint x="600" y="210"/>
                            <mxPoint x="600" y="340"/>
                            <mxPoint x="427" y="340"/>
                        </Array>
                    </mxGeometry>
                </mxCell>
                <mxCell id="110" value="N" style="edgeLabel;html=1;align=center;verticalAlign=middle;resizable=0;points=[];fontSize=9;" vertex="1" connectable="0" parent="109">
                    <mxGeometry x="-0.5208" y="1" relative="1" as="geometry">
                        <mxPoint y="1" as="offset"/>
                    </mxGeometry>
                </mxCell>
                <mxCell id="102" value="&lt;div style=&quot;background-color: rgb(255, 255, 255); font-family: Menlo, Monaco, &amp;quot;Courier New&amp;quot;, monospace; line-height: 18px; font-size: 9px;&quot;&gt;&lt;div style=&quot;line-height: 18px; font-size: 9px;&quot;&gt;startTime != &lt;span style=&quot;color: rgb(9, 134, 88); font-size: 9px;&quot;&gt;0&lt;/span&gt; &amp;amp;&amp;amp;&amp;nbsp;&lt;/div&gt;&lt;div style=&quot;line-height: 18px; font-size: 9px;&quot;&gt;(currentTime - startTime) &amp;gt;= &lt;span style=&quot;color: rgb(9, 134, 88); font-size: 9px;&quot;&gt;5&lt;/span&gt;&lt;/div&gt;&lt;/div&gt;" style="rhombus;whiteSpace=wrap;html=1;fontSize=9;" vertex="1" parent="1">
                    <mxGeometry x="277" y="170" width="300" height="80" as="geometry"/>
                </mxCell>
                <mxCell id="108" style="edgeStyle=none;html=1;fontSize=9;" edge="1" parent="1" source="105" target="53">
                    <mxGeometry relative="1" as="geometry"/>
                </mxCell>
                <mxCell id="105" value="&lt;div style=&quot;background-color: rgb(255, 255, 255); font-family: Consolas, &amp;quot;Courier New&amp;quot;, monospace; font-size: 14px; line-height: 19px;&quot;&gt;&lt;div style=&quot;font-family: Menlo, Monaco, &amp;quot;Courier New&amp;quot;, monospace; font-size: 12px; line-height: 18px;&quot;&gt;led_mode = BREATHE&lt;br&gt;startTime = 0&lt;/div&gt;&lt;/div&gt;" style="whiteSpace=wrap;html=1;shadow=1;" vertex="1" parent="1">
                    <mxGeometry x="347" y="277" width="160" height="41" as="geometry"/>
                </mxCell>
            </root>
        </mxGraphModel>
    </diagram>
</mxfile>